# xmcd
#
# Track frame offsets:
# 150
# 14056
# 28729
# 46625
# 62096
# 73840
# 91253
# 110210
# 123457
# 138888
#
# Disc length: 2062 seconds
#
#
# Revision: 1
# Processed by: cddbd v1.5.1PL2 Copyright (c) Steve Scherf et al.
# Submitted via: FreeRIP 2.944 
#
DISCID=8d080c0a
DTITLE=Deryl Dodd - One Ride In Vegas
DYEAR=1996
DGENRE=Country
TTITLE0=Friends Don't Drive Friends...
TTITLE1=That's How I Got To Memphis
TTITLE2=Movin' Out To The Country
TTITLE3=Stayin' Is the Only Way To Go
TTITLE4=Somethin' Like That
TTITLE5=That Ol' World (Keeps Turning On Me)
TTITLE6=One Ride In Vegas
TTITLE7=13 MWZ
TTITLE8=I Can Love You
TTITLE9=That's Just Me
EXTD=
EXTT0=
EXTT1=
EXTT2=
EXTT3=
EXTT4=
EXTT5=
EXTT6=
EXTT7=
EXTT8=
EXTT9=
PLAYORDER=
